<?xml version="1.0" encoding="UTF-8"?>
<svg width="25px" height="25px" viewBox="0 0 25 25" version="1.1" xmlns="http://www.w3.org/2000/svg" xmlns:xlink="http://www.w3.org/1999/xlink">
    <!-- Generator: Sketch 52.4 (67378) - http://www.bohemiancoding.com/sketch -->
    <title>Icon 3</title>
    <desc>Created with Sketch.</desc>
    <defs>
        <filter x="-3.3%" y="-21.4%" width="106.7%" height="142.9%" filterUnits="objectBoundingBox" id="filter-1">
            <feOffset dx="0" dy="2" in="SourceAlpha" result="shadowOffsetOuter1"></feOffset>
            <feGaussianBlur stdDeviation="2" in="shadowOffsetOuter1" result="shadowBlurOuter1"></feGaussianBlur>
            <feColorMatrix values="0 0 0 0 0   0 0 0 0 0   0 0 0 0 0  0 0 0 0.5 0" type="matrix" in="shadowBlurOuter1" result="shadowMatrixOuter1"></feColorMatrix>
            <feMerge>
                <feMergeNode in="shadowMatrixOuter1"></feMergeNode>
                <feMergeNode in="SourceGraphic"></feMergeNode>
            </feMerge>
        </filter>
        <path d="M15.502,9.491 L14.708,9.491 L14.432,9.765 C15.407,10.902 16,12.376 16,13.991 C16,17.581 13.09,20.491 9.5,20.491 C5.91,20.491 3,17.581 3,13.991 C3,10.401 5.91,7.491 9.5,7.491 C11.115,7.491 12.588,8.083 13.725,9.057 L14.001,8.783 L14.001,7.991 L18.999,3 L20.49,4.491 L15.502,9.491 L15.502,9.491 Z M9.5,9.491 C7.014,9.491 5,11.505 5,13.991 C5,16.476 7.014,18.491 9.5,18.491 C11.985,18.491 14,16.476 14,13.991 C14,11.505 11.985,9.491 9.5,9.491 L9.5,9.491 Z" id="path-2"></path>
        <path d="M15.502,9.491 L14.708,9.491 L14.432,9.765 C15.407,10.902 16,12.376 16,13.991 C16,17.581 13.09,20.491 9.5,20.491 C5.91,20.491 3,17.581 3,13.991 C3,10.401 5.91,7.491 9.5,7.491 C11.115,7.491 12.588,8.083 13.725,9.057 L14.001,8.783 L14.001,7.991 L18.999,3 L20.49,4.491 L15.502,9.491 L15.502,9.491 Z M9.5,9.491 C7.014,9.491 5,11.505 5,13.991 C5,16.476 7.014,18.491 9.5,18.491 C11.985,18.491 14,16.476 14,13.991 C14,11.505 11.985,9.491 9.5,9.491 L9.5,9.491 Z" id="path-4"></path>
        <filter x="-34.3%" y="-31.0%" width="171.0%" height="171.0%" filterUnits="objectBoundingBox" id="filter-6">
            <feMorphology radius="1" operator="dilate" in="SourceAlpha" result="shadowSpreadOuter1"></feMorphology>
            <feOffset dx="0" dy="1" in="shadowSpreadOuter1" result="shadowOffsetOuter1"></feOffset>
            <feGaussianBlur stdDeviation="1.5" in="shadowOffsetOuter1" result="shadowBlurOuter1"></feGaussianBlur>
            <feComposite in="shadowBlurOuter1" in2="SourceAlpha" operator="out" result="shadowBlurOuter1"></feComposite>
            <feColorMatrix values="0 0 0 0 0   0 0 0 0 0   0 0 0 0 0  0 0 0 0.2 0" type="matrix" in="shadowBlurOuter1" result="shadowMatrixOuter1"></feColorMatrix>
            <feMorphology radius="1" operator="dilate" in="SourceAlpha" result="shadowSpreadOuter2"></feMorphology>
            <feOffset dx="0" dy="2" in="shadowSpreadOuter2" result="shadowOffsetOuter2"></feOffset>
            <feGaussianBlur stdDeviation="1" in="shadowOffsetOuter2" result="shadowBlurOuter2"></feGaussianBlur>
            <feComposite in="shadowBlurOuter2" in2="SourceAlpha" operator="out" result="shadowBlurOuter2"></feComposite>
            <feColorMatrix values="0 0 0 0 0   0 0 0 0 0   0 0 0 0 0  0 0 0 0.12 0" type="matrix" in="shadowBlurOuter2" result="shadowMatrixOuter2"></feColorMatrix>
            <feMorphology radius="1" operator="dilate" in="SourceAlpha" result="shadowSpreadOuter3"></feMorphology>
            <feOffset dx="0" dy="0" in="shadowSpreadOuter3" result="shadowOffsetOuter3"></feOffset>
            <feGaussianBlur stdDeviation="1" in="shadowOffsetOuter3" result="shadowBlurOuter3"></feGaussianBlur>
            <feComposite in="shadowBlurOuter3" in2="SourceAlpha" operator="out" result="shadowBlurOuter3"></feComposite>
            <feColorMatrix values="0 0 0 0 0   0 0 0 0 0   0 0 0 0 0  0 0 0 0.14 0" type="matrix" in="shadowBlurOuter3" result="shadowMatrixOuter3"></feColorMatrix>
            <feMerge>
                <feMergeNode in="shadowMatrixOuter1"></feMergeNode>
                <feMergeNode in="shadowMatrixOuter2"></feMergeNode>
                <feMergeNode in="shadowMatrixOuter3"></feMergeNode>
            </feMerge>
        </filter>
    </defs>
    <g id="Front-End-Challenge" stroke="none" stroke-width="1" fill="none" fill-rule="evenodd">
        <g id="Bus-Stop-Display" transform="translate(-319.000000, -40.000000)">
            <g id="Top-Bar" transform="translate(0.000000, -1.000000)">
                <g id="App-Bar-/-Top-App-Bar-/-Regular-/-Flat-/-Primary-Color" filter="url(#filter-1)" transform="translate(0.000000, 24.000000)">
                    <g id="ICONS">
                        <g id="Icon-/-Search-/-Outlined" transform="translate(320.000000, 16.000000)">
                            <mask id="mask-3" fill="white">
                                <use xlink:href="#path-2"></use>
                            </mask>
                            <g id="Mask" transform="translate(11.745000, 11.745500) scale(1, -1) translate(-11.745000, -11.745500) "></g>
                            <g id="Icon-/-Search-/-Filled" mask="url(#mask-3)">
                                <mask id="mask-5" fill="white">
                                    <use xlink:href="#path-4"></use>
                                </mask>
                                <g id="Mask" transform="translate(11.745000, 11.745500) scale(1, -1) translate(-11.745000, -11.745500) ">
                                    <use fill="black" fill-opacity="1" filter="url(#filter-6)" xlink:href="#path-4"></use>
                                    <path stroke-opacity="0.12" stroke="#6200EE" stroke-width="1" d="M15.2393669,9.991 C16.0523765,11.1529504 16.5,12.5378657 16.5,13.991 C16.5,17.8571424 13.3661424,20.991 9.5,20.991 C5.63385763,20.991 2.5,17.8571424 2.5,13.991 C2.5,10.1248576 5.63385763,6.991 9.5,6.991 C10.9539382,6.991 12.3388513,7.43840412 13.501,8.25142309 L13.501,7.78368794 L18.9992477,2.29314089 L21.1966823,4.49057548 L15.7094588,9.991 L15.2393669,9.991 Z M9.5,9.991 C7.29014237,9.991 5.5,11.7811424 5.5,13.991 C5.5,16.2002202 7.29050491,17.991 9.5,17.991 C11.7088576,17.991 13.5,16.1998576 13.5,13.991 C13.5,11.7815049 11.7092202,9.991 9.5,9.991 Z" fill="#FAFAFA" fill-rule="evenodd"></path>
                                </g>
                                <g id="✱-/-Color-/-Icons-/-Selected-/-On-Primary-/-Active-" mask="url(#mask-5)" fill="#FFFFFF" fill-rule="evenodd">
                                    <rect id="Rectangle-3" x="0" y="0" width="24" height="24"></rect>
                                </g>
                            </g>
                        </g>
                    </g>
                </g>
            </g>
        </g>
    </g>
</svg>